<svg width="92" height="90" viewBox="0 0 92 90" fill="none" xmlns="http://www.w3.org/2000/svg">
<g clip-path="url(#clip0_23_156)">
<path d="M56.2291 43.3151L47.1491 51.9802L8.80556 88.5661C7.79893 89.5289 6.50759 90.0103 5.21626 90.0103C3.80291 90.0103 2.38956 89.4367 1.36259 88.2998C-0.660841 86.0669 -0.396473 82.5743 1.932 80.6692L47.1491 43.8272L52.1314 39.7712L56.2291 43.3151Z" fill="url(#paint0_linear_23_156)"/>
<path d="M46.7525 52.4207L37.8149 60.9424L36.9912 52.1851L41.8821 48.2008L46.7525 52.4207Z" fill="#3A81D6" fill-opacity="0.8"/>
<path d="M92.0001 29.9078C92.0001 46.4288 78.7003 59.8259 62.3095 59.8259C51.9789 59.8259 42.8785 54.5101 37.5606 46.4391C34.4391 41.7071 32.619 36.0225 32.619 29.9078C32.619 13.3868 45.9187 0 62.3095 0C69.7118 0 76.4735 2.72448 81.6694 7.23114C87.9939 12.7211 92.0001 20.8433 92.0001 29.9078Z" fill="url(#paint1_linear_23_156)"/>
<path d="M62.3095 53.2093C75.0851 53.2093 85.4417 42.7768 85.4417 29.9078C85.4417 17.0387 75.0851 6.60632 62.3095 6.60632C49.534 6.60632 39.1774 17.0387 39.1774 29.9078C39.1774 42.7768 49.534 53.2093 62.3095 53.2093Z" fill="white"/>
<path opacity="0.06" d="M92.0001 29.9078C92.0001 46.4288 78.7003 59.8258 62.3095 59.8258C51.9788 59.8258 42.8785 54.51 37.5606 46.439C71.0438 43.694 79.8696 15.1177 81.6796 7.23108C87.9939 12.721 92.0001 20.8432 92.0001 29.9078Z" fill="#1A6FB5" fill-opacity="0.5"/>
<path d="M62.3095 29.959C64.9939 29.959 67.1698 27.7671 67.1698 25.0631C67.1698 22.3591 64.9939 20.1672 62.3095 20.1672C59.6252 20.1672 57.4492 22.3591 57.4492 25.0631C57.4492 27.7671 59.615 29.959 62.3095 29.959ZM62.3095 32.4069C59.0659 32.4069 52.5889 34.0457 52.5889 37.3028V38.5319C52.5889 39.2079 53.138 39.761 53.8091 39.761H70.8303C71.5014 39.761 72.0504 39.2079 72.0504 38.5319V37.3028C72.0301 34.0559 65.5531 32.4069 62.3095 32.4069Z" fill="url(#paint2_linear_23_156)"/>
</g>
<defs>
<linearGradient id="paint0_linear_23_156" x1="5.67615" y1="84.3265" x2="53.927" y2="40.7808" gradientUnits="userSpaceOnUse">
<stop stop-color="#67C3F3"/>
<stop offset="1" stop-color="#5A98F2"/>
</linearGradient>
<linearGradient id="paint1_linear_23_156" x1="50.0293" y1="2.11336" x2="72.7902" y2="52.9094" gradientUnits="userSpaceOnUse">
<stop stop-color="#67C3F3"/>
<stop offset="1" stop-color="#5A98F2"/>
</linearGradient>
<linearGradient id="paint2_linear_23_156" x1="55.2819" y1="28.3947" x2="72.9354" y2="36.9423" gradientUnits="userSpaceOnUse">
<stop stop-color="#B0F4FF"/>
<stop offset="0.071077" stop-color="#A6F1FF"/>
<stop offset="0.2937" stop-color="#8BE8FD"/>
<stop offset="0.5209" stop-color="#78E1FD"/>
<stop offset="0.7536" stop-color="#6DDDFC"/>
<stop offset="1" stop-color="#69DCFC"/>
</linearGradient>
<clipPath id="clip0_23_156">
<rect width="92" height="90" fill="white"/>
</clipPath>
</defs>
</svg>
